<svg width="49" height="39" viewBox="0 0 49 39" fill="none" xmlns="http://www.w3.org/2000/svg">
<path d="M4.5 4.5L19.769 16.0307L19.7743 16.035C21.4695 17.2783 22.3178 17.9002 23.247 18.1405C24.068 18.353 24.9313 18.353 25.7525 18.1405C26.6823 17.9 27.533 17.2762 29.2315 16.0307C29.2315 16.0307 39.0253 8.51485 44.5 4.5M2 29.0005V10.0005C2 7.20023 2 5.79905 2.54497 4.7295C3.02432 3.78868 3.78868 3.02432 4.7295 2.54497C5.79905 2 7.20023 2 10.0005 2H39.0005C41.8007 2 43.199 2 44.2685 2.54497C45.2093 3.02432 45.9762 3.78868 46.4555 4.7295C47 5.798 47 7.19747 47 9.99227V29.009C47 31.8038 47 33.2012 46.4555 34.2697C45.9762 35.2105 45.2093 35.9762 44.2685 36.4555C43.2 37 41.8025 37 39.0078 37H9.99227C7.19747 37 5.798 37 4.7295 36.4555C3.78868 35.9762 3.02432 35.2105 2.54497 34.2697C2 33.2002 2 31.8008 2 29.0005Z" stroke="white" stroke-width="4" stroke-linecap="round" stroke-linejoin="round"/>
</svg>
