<svg width="68" height="53" viewBox="0 0 68 53" fill="none" xmlns="http://www.w3.org/2000/svg">
<path fill-rule="evenodd" clip-rule="evenodd" d="M41.7493 0C44.6763 0 47.275 1.71739 48.2004 4.26351L50.0507 9.35294H57.8C63.4335 9.35294 68 13.5404 68 18.7059V43.6471C68 48.8127 63.4335 53 57.8 53H10.2C4.56671 53 0 48.8127 0 43.6471V18.7059C0 13.5404 4.56671 9.35294 10.2 9.35294H17.9494L19.7995 4.26351C20.7251 1.71739 23.3237 0 26.2506 0H41.7493ZM41.7493 6.23529H26.2506L24.4005 11.3247C23.4749 13.8708 20.8763 15.5882 17.9494 15.5882H10.2C8.32225 15.5882 6.8 16.9841 6.8 18.7059V43.6471C6.8 45.3689 8.32225 46.7647 10.2 46.7647H57.8C59.6778 46.7647 61.2 45.3689 61.2 43.6471V18.7059C61.2 16.9841 59.6778 15.5882 57.8 15.5882H50.0507C47.1237 15.5882 44.525 13.8708 43.5996 11.3247L41.7493 6.23529ZM25.5 29.6176C25.5 25.3131 29.3056 21.8235 34 21.8235C38.6944 21.8235 42.5 25.3131 42.5 29.6176C42.5 33.9222 38.6944 37.4118 34 37.4118C29.3056 37.4118 25.5 33.9222 25.5 29.6176ZM34 15.5882C25.55 15.5882 18.7 21.8694 18.7 29.6176C18.7 37.3659 25.55 43.6471 34 43.6471C42.45 43.6471 49.3 37.3659 49.3 29.6176C49.3 21.8694 42.45 15.5882 34 15.5882Z" fill="white"/>
</svg>
