<svg width="70" height="72" viewBox="0 0 70 72" fill="none" xmlns="http://www.w3.org/2000/svg">
<path d="M52.5 49.4418C52.5 46.296 55.3088 43.4188 59.7538 42.012L70 38.7692L39.375 0H30.625L0 38.7692L10.2463 42.012C14.6912 43.4188 17.5 46.296 17.5 49.4418V49.8462H8.75V72H61.25V49.8462H52.5V49.4418ZM14.1575 37.0578L11.7381 36.2935L30.625 12.384V33.2308H39.375V12.384L58.2619 36.2908L55.8425 37.0551C48.3831 39.4172 43.75 44.1637 43.75 49.4418V49.8462H26.25V49.4418C26.25 44.1637 21.6169 39.4172 14.1575 37.0578ZM52.5 66.4615H17.5V55.3846H52.5V66.4615Z" fill="white"/>
</svg>
