<svg width="70" height="67" viewBox="0 0 70 67" fill="none" xmlns="http://www.w3.org/2000/svg">
<path d="M34.9665 20.1C41.6101 20.1 47.2048 24.455 48.6034 30.485C48.9531 32.16 51.0511 33.5 52.7994 32.83C54.5477 32.495 55.9464 30.485 55.247 28.81C53.1491 19.43 44.7571 13.4 34.9665 13.4C23.4275 13.4 13.9866 22.445 13.9866 33.5C13.9866 43.885 22.3785 52.595 33.2181 53.6H33.5678C35.3161 53.6 36.7148 52.26 37.0645 50.585C37.4141 48.91 35.6658 47.235 33.9175 46.9C26.9242 46.23 20.9799 40.2 20.9799 33.5C20.9799 26.13 27.2738 20.1 34.9665 20.1Z" fill="white"/>
<path d="M34.9665 60.3C19.5812 60.3 6.9933 48.24 6.9933 33.5C6.9933 18.76 19.5812 6.7 34.9665 6.7C49.6524 6.7 61.8907 17.755 62.9397 31.825C62.9397 33.835 64.688 35.175 66.786 34.84C68.884 34.84 70.2827 33.165 69.933 31.155C68.5343 13.735 53.4988 0 34.9665 0C15.7349 0 0 15.075 0 33.5C0 51.925 15.7349 67 34.9665 67C37.0645 67 38.4632 65.66 38.4632 63.65C38.4632 61.64 37.0645 60.3 34.9665 60.3Z" fill="white"/>
<path d="M67.4854 41.875C67.1358 41.54 66.4365 41.205 66.0868 41.205L43.3586 33.835C41.2606 33.165 38.8129 33.835 37.0646 35.51C35.3163 37.185 34.9666 39.53 36.0156 41.54L46.5055 63.65C47.5545 65.66 49.6525 67 51.7505 67C52.1002 67 52.4499 67 52.7995 67C55.5968 66.665 57.3452 64.655 57.6948 61.975L58.7438 53.935L65.7371 51.925C67.8351 51.255 69.5834 49.58 69.9331 47.235C70.2828 45.225 69.2338 42.88 67.4854 41.875ZM56.2962 47.57C53.8485 48.24 52.4499 49.915 52.1002 52.26L51.4009 57.285L43.7082 40.87L60.4921 46.23L56.2962 47.57Z" fill="white"/>
</svg>
