<svg width="40" height="40" viewBox="0 0 40 40" fill="none" xmlns="http://www.w3.org/2000/svg">
<path d="M38.75 8.5547C37.3433 9.16591 35.855 9.56859 34.332 9.75001C35.9326 8.81281 37.1362 7.32389 37.7172 5.56251C36.204 6.44735 34.5512 7.06819 32.8297 7.39845C32.1048 6.63871 31.2329 6.03431 30.2671 5.622C29.3014 5.20969 28.2618 4.99807 27.2117 5.00001C22.9602 5.00001 19.5195 8.39064 19.5195 12.5703C19.5165 13.1517 19.5831 13.7314 19.718 14.2969C16.6693 14.154 13.684 13.3762 10.9531 12.0135C8.22222 10.6507 5.80585 8.73295 3.85859 6.38283C3.17545 7.53448 2.81417 8.84848 2.8125 10.1875C2.8125 12.8125 4.18203 15.1328 6.25 16.4922C5.02479 16.4631 3.82468 16.1388 2.75156 15.5469V15.6406C2.75156 19.3125 5.40781 22.3672 8.92344 23.0625C8.26233 23.2388 7.58107 23.328 6.89687 23.3281C6.41139 23.329 5.92701 23.2819 5.45078 23.1875C6.42812 26.1953 9.27266 28.3828 12.6422 28.4453C9.9042 30.5554 6.54267 31.6959 3.08594 31.6875C2.47236 31.6866 1.85935 31.6501 1.25 31.5781C4.76655 33.8236 8.85425 35.0114 13.0266 35C27.1953 35 34.9359 23.461 34.9359 13.4531C34.9359 13.125 34.9273 12.7969 34.9117 12.4766C36.4141 11.4079 37.7139 10.0798 38.75 8.5547Z" fill="#FF078B"/>
</svg>
